#N canvas 827 239 734 565 12;
#X obj 27 12 keyboard 16 80 4 2 0 0 empty empty;
#X obj 27 128 unpack f f;
#X obj 27 160 s \$0-midi-note;
#X obj 158 160 s \$0-midi-velocity;
#X obj 48 353 mtof;
#X floatatom 48 386 5 0 0 0 - - - 12;
#X obj 48 431 bl.saw~ 440;
#X obj 48 259 r \$0-midi-note;
#X obj 194 431 bl.square~ 440;
#X obj 131 510 xfade~;
#X obj 342 463 hsl 128 17 -1 1 0 1 empty empty empty -2 -8 0 10 #e4e4e4 #4d4d4d #373737 4061 1;
#X obj 242 483 sig~;
#X obj 508 791 adsr~ 1 250 0.5 500;
#X obj 135 883 lowpass~ 1000 0.7;
#X obj 235 724 f2s~ 20;
#X obj 235 760 *~;
#X obj 235 795 mtof~;
#X obj 235 833 clip~ 20 20000;
#X floatatom 235 696 5 0 0 0 - - - 12;
#X obj 370 713 hsl 128 17 0 127 0 0 empty empty empty -2 -8 0 10 #e4e4e4 #4d4d4d #373737 0 1;
#X floatatom 367 745 5 0 0 0 - - - 12;
#X obj 367 776 f2s~ 20;
#X obj 367 811 *~;
#X obj 235 621 +;
#X obj 235 658 clip 0 10000;
#X obj 235 551 r \$0-midi-note;
#X obj 281 587 hsl 128 17 -100 100 0 1 empty empty cutoff -2 -8 0 10 #e4e4e4 #4d4d4d #373737 11637 1;
#X floatatom 540 608 5 0 0 1 velocity - - 16;
#X obj 540 650 > 0;
#X obj 540 677 tgl 25 0 empty empty empty 17 7 0 10 #e4e4e4 #4d4d4d #373737 0 1;
#X obj 540 713 sig~;
#X obj 540 575 r \$0-midi-velocity;
#X obj 107 1415 output~;
#X obj 427 860 hsl 128 17 0 127 0 0 empty empty empty -2 -8 0 10 #e4e4e4 #4d4d4d #373737 0 1;
#X floatatom 424 890 5 0 0 0 - - - 16;
#X obj 333 904 f2s~ 20, f 8;
#X obj 19 975 rm.m~;
#A saved 37.5831 0.00800002;
#A saved;
#A saved;
#X obj 19 1245 filterdelay~ 20 0.5;
#X obj 159 1245 filterdelay~ 10 0.5;
#X obj 62 1305 stereo.rev~;
#X obj 131 929 osc~;
#X obj 148 963 *~ 0.1;
#X obj 264 1009 lfo;
#X obj 267 963 hsl 128 17 0 1 0 1 empty empty empty -2 -8 0 10 #e4e4e4 #4d4d4d #373737 7701 1;
#X obj 266 1049 / 5;
#X obj 263 1093 - 12;
#X msg 254 1168 hz \$1;
#X obj 263 1137 + 45;
#X connect 0 0 1 0;
#X connect 1 0 2 0;
#X connect 1 1 3 0;
#X connect 4 0 5 0;
#X connect 5 0 6 0;
#X connect 5 0 8 0;
#X connect 6 0 9 0;
#X connect 7 0 4 0;
#X connect 8 0 9 1;
#X connect 9 0 13 0;
#X connect 10 0 11 0;
#X connect 11 0 9 2;
#X connect 12 0 22 1;
#X connect 13 0 36 0;
#X connect 14 0 15 0;
#X connect 15 0 16 0;
#X connect 16 0 17 0;
#X connect 17 0 13 1;
#X connect 18 0 14 0;
#X connect 19 0 20 0;
#X connect 20 0 21 0;
#X connect 21 0 22 0;
#X connect 22 0 15 1;
#X connect 23 0 24 0;
#X connect 24 0 18 0;
#X connect 25 0 23 0;
#X connect 26 0 23 1;
#X connect 27 0 28 0;
#X connect 28 0 29 0;
#X connect 29 0 30 0;
#X connect 30 0 12 0;
#X connect 31 0 27 0;
#X connect 33 0 34 0;
#X connect 34 0 35 0;
#X connect 35 0 13 2;
#X connect 36 0 37 0;
#X connect 36 0 38 0;
#X connect 37 0 39 0;
#X connect 38 0 39 1;
#X connect 39 0 32 0;
#X connect 39 1 32 1;
#X connect 40 0 41 0;
#X connect 41 0 36 1;
#X connect 42 0 44 0;
#X connect 43 0 42 0;
#X connect 44 0 45 0;
#X connect 45 0 47 0;
#X connect 46 0 36 0;
#X connect 47 0 46 0;
