#N canvas 827 239 734 565 12;
#X obj 249 229 phasor 1;
#X obj 34 223 metro 1 30 permin;
#X floatatom 185 384 5 0 0 0 - - - 12;
#X obj 45 339 float 60;
#X obj 45 384 outlet midi-note;
#X obj 249 310 outlet breath-value;
#X obj 104 103 hsl 88 18 0 127 0 0 empty \$0-breath-value empty -2 -8 0 10 #dcdcdc #000000 #000000 0 1;
#X floatatom 203 103 5 0 0 0 - \$0-breath-value - 16;
#X obj 363 255 s \$0-breath-value;
#X obj 12 40 bng 25 250 50 0 \$0-start-bang empty empty 17 7 0 10 #e4e4e4 #4d4d4d #373737;
#X text 12 16 start;
#X text 98 72 breath;
#X obj 195 76 nbx 4 15 -1e+37 1e+37 0 0 \$0-breath-freq empty empty 0 -8 0 11 #dcdcdc #000000 #000000 0 256;
#X obj 249 190 r \$0-breath-freq;
#X obj 101 40 nbx 5 19 -1e+37 1e+37 0 0 \$0-midi-note-set empty empty 0 -11 0 12 #fcfcfc #000000 #000000 0 256;
#X text 101 16 note;
#X obj 77 296 r \$0-midi-note-set;
#X obj 34 190 r \$0-start-bang;
#X obj 148 17 bng 17 250 50 0 empty \$0-metro-bang empty 17 7 0 10 #e4e4e4 #4d4d4d #373737;
#X obj 85 255 s \$0-metro-bang;
#X connect 0 0 8 0;
#X connect 0 0 5 0;
#X connect 1 0 3 0;
#X connect 1 0 19 0;
#X connect 3 0 4 0;
#X connect 3 0 2 0;
#X connect 13 0 0 0;
#X connect 16 0 3 1;
#X connect 17 0 1 0;
#X coords 0 0 1 1 261 141 1 0 0;
