#N canvas 827 239 734 565 12;
#X obj 66 216 mtof;
#X floatatom 66 249 5 0 0 0 - - - 12;
#X obj 450 1253 output~;
#X obj 323 524 scope~ 200 100 2 3 128 -2 2 0 0 0 0 77 77 77 228 228 228 183 183 183 0 empty;
#X obj 32 -73 keyboard 16 80 4 2 0 0 empty empty;
#X obj 32 29 unpack f f;
#X obj 66 294 bl.saw~ 440;
#X floatatom 493 196 5 0 0 1 velocity - - 16;
#X obj 493 242 > 0;
#X obj 503 266 tgl 25 0 empty empty empty 17 7 0 10 #e4e4e4 #4d4d4d #373737 0 1;
#X obj 439 332 adsr~ 1 250 0.5 500;
#X obj 76 503 *~;
#X obj 480 377 scope~ 200 100 256 3 128 -1 1 0 0 0 0 77 77 77 228 228 228 183 183 183 0 empty;
#X obj 503 302 sig~;
#X obj 66 424 lowpass~ 1000 0.7;
#X obj 166 265 f2s~ 20;
#X obj 166 301 *~;
#X obj 166 336 mtof~;
#X obj 166 374 clip~ 20 20000;
#X obj 224 122 hsl 128 17 -100 100 0 1 empty empty cutoff -2 -8 0 10 #e4e4e4 #4d4d4d #373737 10519 1;
#X floatatom 166 237 5 0 0 0 - - - 12;
#X obj 301 258 hsl 128 17 0 127 0 0 empty empty empty -2 -8 0 10 #e4e4e4 #4d4d4d #373737 0 1;
#X floatatom 298 286 5 0 0 0 - - - 12;
#X obj 298 317 f2s~ 20;
#X obj 298 352 *~;
#X obj 301 432 hsl 128 17 0 127 0 0 empty empty empty -2 -8 0 10 #e4e4e4 #4d4d4d #373737 0 1;
#X floatatom 298 462 5 0 0 0 - - - 16;
#X obj 214 476 f2s~ 20;
#X obj 718 197 mtof;
#X floatatom 718 230 5 0 0 0 - - - 12;
#X obj 993 509 scope~ 200 100 2 3 128 -2 2 0 0 0 0 77 77 77 228 228 228 183 183 183 0 empty;
#X floatatom 1163 181 5 0 0 1 velocity - - 16;
#X obj 1163 227 > 0;
#X obj 1173 251 tgl 25 0 empty empty empty 17 7 0 10 #e4e4e4 #4d4d4d #373737 0 1;
#X obj 1109 317 adsr~ 1 250 0.5 500;
#X obj 746 488 *~;
#X obj 1150 362 scope~ 200 100 256 3 128 -1 1 0 0 0 0 77 77 77 228 228 228 183 183 183 0 empty;
#X obj 1173 287 sig~;
#X obj 736 409 lowpass~ 1000 0.7;
#X obj 836 250 f2s~ 20;
#X obj 836 286 *~;
#X obj 836 321 mtof~;
#X obj 836 359 clip~ 20 20000;
#X obj 839 195 hsl 128 17 0 127 0 0 empty empty cutoff -2 -8 0 10 #e4e4e4 #4d4d4d #373737 0 1;
#X floatatom 836 222 5 0 0 0 - - - 12;
#X obj 971 243 hsl 128 17 0 127 0 0 empty empty empty -2 -8 0 10 #e4e4e4 #4d4d4d #373737 0 1;
#X floatatom 968 271 5 0 0 0 - - - 12;
#X obj 968 302 f2s~ 20;
#X obj 968 337 *~;
#X obj 971 417 hsl 128 17 0 127 0 0 empty empty empty -2 -8 0 10 #e4e4e4 #4d4d4d #373737 0 1;
#X floatatom 968 447 5 0 0 0 - - - 16;
#X obj 884 461 f2s~ 20;
#X obj 718 286 bl.square~ 440;
#X obj 396 761 xfade~;
#X obj 32 61 s \$0-midi-note;
#X obj 163 61 s \$0-midi-velocity;
#X obj 493 162 r \$0-midi-velocity;
#X obj 66 122 r \$0-midi-note;
#X obj 718 148 r \$0-midi-note;
#X obj 1163 148 r \$0-midi-velocity;
#X obj 684 656 hsl 128 17 -1 1 0 1 empty empty empty -2 -8 0 10 #e4e4e4 #4d4d4d #373737 0 1;
#X obj 607 716 sig~;
#X obj 228 1017 delay.m~;
#A saved 10 0.432 303.918 0.536 0.656;
#A saved;
#A saved;
#A saved;
#A saved;
#A saved;
#X obj 495 1017 delay.m~;
#A saved 15.0622 -0.0159999 382.24 0.448 0.676;
#A saved;
#A saved;
#A saved;
#A saved;
#A saved;
#X obj 72 740 plate.rev.m~;
#A saved 31.1141 0.688 0.306 0.716 0.5;
#A saved;
#A saved;
#A saved;
#A saved;
#A saved;
#X obj 947 1168 plate.rev~;
#X msg 296 931 time \$1;
#X obj 306 866 hsl 120 16 0 127 0 0 empty empty empty -2 -8 0 10 #e4e4e4 #4d4d4d #373737 0 1;
#X obj 166 162 +;
#X obj 166 199 clip 0 10000;
#X obj -189 476 scope~ 200 100 256 3 128 0 20000 0 0 0 0 77 77 77 228 228 228 183 183 183 0 empty;
#X connect 0 0 1 0;
#X connect 1 0 6 0;
#X connect 4 0 5 0;
#X connect 5 0 54 0;
#X connect 5 1 55 0;
#X connect 6 0 14 0;
#X connect 7 0 8 0;
#X connect 8 0 9 0;
#X connect 9 0 13 0;
#X connect 10 0 11 1;
#X connect 10 0 12 0;
#X connect 10 0 24 1;
#X connect 11 0 3 0;
#X connect 11 0 53 0;
#X connect 13 0 10 0;
#X connect 14 0 11 0;
#X connect 15 0 16 0;
#X connect 16 0 17 0;
#X connect 17 0 18 0;
#X connect 18 0 14 1;
#X connect 18 0 70 0;
#X connect 19 0 68 1;
#X connect 20 0 15 0;
#X connect 21 0 22 0;
#X connect 22 0 23 0;
#X connect 23 0 24 0;
#X connect 24 0 16 1;
#X connect 25 0 26 0;
#X connect 26 0 27 0;
#X connect 27 0 14 2;
#X connect 28 0 29 0;
#X connect 29 0 52 0;
#X connect 31 0 32 0;
#X connect 32 0 33 0;
#X connect 33 0 37 0;
#X connect 34 0 35 1;
#X connect 34 0 36 0;
#X connect 34 0 48 1;
#X connect 35 0 30 0;
#X connect 35 0 53 1;
#X connect 37 0 34 0;
#X connect 38 0 35 0;
#X connect 39 0 40 0;
#X connect 40 0 41 0;
#X connect 41 0 42 0;
#X connect 42 0 38 1;
#X connect 43 0 44 0;
#X connect 44 0 39 0;
#X connect 45 0 46 0;
#X connect 46 0 47 0;
#X connect 47 0 48 0;
#X connect 48 0 40 1;
#X connect 49 0 50 0;
#X connect 50 0 51 0;
#X connect 51 0 38 2;
#X connect 52 0 38 0;
#X connect 53 0 64 0;
#X connect 56 0 7 0;
#X connect 57 0 0 0;
#X connect 57 0 68 0;
#X connect 58 0 28 0;
#X connect 59 0 31 0;
#X connect 60 0 61 0;
#X connect 61 0 53 2;
#X connect 62 0 2 0;
#X connect 63 0 2 1;
#X connect 64 0 62 0;
#X connect 64 1 63 0;
#X connect 66 0 62 0;
#X connect 67 0 66 0;
#X connect 68 0 69 0;
#X connect 69 0 20 0;
