#N canvas 827 239 734 565 12;
#X obj 11 279 phasor~;
#X obj 11 326 cos~;
#X obj 250 499 *~;
#X obj 11 190 mtof;
#X obj 432 15 ctlin;
#X floatatom 422 52 5 0 0 0 - - - 12;
#X floatatom 481 52 5 0 0 0 - - - 12;
#X floatatom 536 52 5 0 0 0 - - - 12;
#X obj 201 210 / 127;
#X obj 338 15 notein 1;
#X obj 338 71 stripnote;
#X msg 188 272 \$1 10;
#X obj 145 308 line~;
#X obj 11 247 line~;
#X msg 11 217 \$1 20;
#X obj 11 10 ewi_emulator;
#X obj 250 599 output~;
#X obj 381 487 scope~ 200 100 256 3 128 -1 1 0 0 0 0 77 77 77 228 228 228 183 183 183 0 empty;
#X connect 0 0 1 0;
#X connect 1 0 2 0;
#X connect 2 0 16 0;
#X connect 2 0 17 0;
#X connect 3 0 14 0;
#X connect 4 0 5 0;
#X connect 4 1 6 0;
#X connect 4 2 7 0;
#X connect 8 0 11 0;
#X connect 9 0 10 0;
#X connect 9 1 10 1;
#X connect 11 0 12 0;
#X connect 12 0 2 1;
#X connect 13 0 0 0;
#X connect 14 0 13 0;
#X connect 15 0 3 0;
#X connect 15 1 8 0;
