#N canvas 827 239 734 565 12;
#X obj 364 104 r \$0-osc-0-level, f 15;
#X obj 490 104 r \$0-osc-1-level, f 15;
#X obj 364 163 bng 22 250 50 0 empty empty empty 17 7 0 10 #e4e4e4 #4d4d4d #373737;
#X listbox 454 202 19 0 0 0 - - - 16;
#X obj 454 163 pack b f f, f 9;
#X obj 454 241 sum, f 5;
#X floatatom 580 275 5 0 0 0 - - - 12;
#X obj 67 104 r \$0-osc-0-level, f 15;
#X obj 238 104 r \$0-osc-1-level, f 15;
#X obj 67 196 sig~, f 5;
#X obj 67 241 s~ \$0-osc-0-level-coeff, f 22;
#X obj 238 196 sig~, f 5;
#X obj 238 241 s~ \$0-osc-1-level-coeff, f 21;
#X obj 454 283 pow -1, f 7;
#X obj 67 152 *, f 5;
#X obj 238 152 *, f 5;
#X text 101 52 Mixer coefficient calculation, f 24;
#X text 397 44 Sum the levels to determine normalization factor, f 25;
#X connect 0 0 2 0;
#X connect 0 0 4 1;
#X connect 1 0 2 0;
#X connect 1 0 4 2;
#X connect 2 0 4 0;
#X connect 3 0 5 0;
#X connect 4 0 3 0;
#X connect 5 0 6 0;
#X connect 5 0 13 0;
#X connect 7 0 14 1;
#X connect 8 0 15 1;
#X connect 9 0 10 0;
#X connect 11 0 12 0;
#X connect 13 0 15 0;
#X connect 13 0 14 0;
#X connect 14 0 9 0;
#X connect 15 0 11 0;
