#N canvas 827 239 734 565 12;
#X obj 137 345 phasor~;
#X obj 137 540 cos~;
#X obj 303 345 phasor~;
#X obj 303 386 cos~;
#X obj 137 494 +~;
#X obj 303 433 *~;
#X obj 136 629 *~;
#X obj 461 247 > 0;
#X floatatom 461 313 5 0 0 0 - - - 12;
#X obj 461 345 sig~;
#X obj 234 540 adsr~ 5 0 1000 5000;
#X obj 137 189 inlet~ carrier-frequency;
#X obj 136 665 outlet~;
#X obj 369 192 inlet velocity;
#X obj 303 292 *~;
#X obj 527 192 inlet~ modulation-frequency-ratio;
#X obj 461 279 *;
#X obj 764 192 inlet modulation-amplitude;
#X obj 361 462 > 0;
#X obj 361 494 sig~;
#X obj 334 672 outlet~;
#X obj 473 585 outlet;
#X connect 0 0 4 0;
#X connect 1 0 6 0;
#X connect 2 0 3 0;
#X connect 3 0 5 0;
#X connect 4 0 1 0;
#X connect 5 0 4 1;
#X connect 5 0 20 0;
#X connect 6 0 12 0;
#X connect 7 0 16 0;
#X connect 8 0 9 0;
#X connect 8 0 21 0;
#X connect 9 0 5 1;
#X connect 10 0 6 1;
#X connect 11 0 0 0;
#X connect 11 0 14 0;
#X connect 13 0 7 0;
#X connect 13 0 18 0;
#X connect 14 0 2 0;
#X connect 15 0 14 1;
#X connect 16 0 8 0;
#X connect 17 0 16 1;
#X connect 18 0 19 0;
#X connect 19 0 10 0;
