#N canvas 827 239 734 565 12;
#X declare -path ./core;
#X obj 460 323 cnv 15 387 263 empty empty empty 20 12 0 14 #ac89bb #373737 0;
#X obj 46 323 cnv 15 387 263 empty empty empty 20 12 0 14 #82acbb #373737 0;
#X obj 720 5 cnv 15 329 203 empty empty Oscillator\ 1 20 12 0 14 #ac89bb #373737 0;
#X obj 489 5 cnv 15 195 203 empty empty Oscillator\ 0 20 12 0 14 #82acbb #373737 0;
#X obj 10 -32 declare -path ./core;
#X obj 71 480 phase_modulation_oscillator;
#X obj 10 13 keyboard 16 80 4 2 0 0 empty empty;
#X obj 760 99 knob 50 -12 12 0 0 \$0-osc1-carrier-note-offset empty #E4E4E4 #B7B7B7 #4D4D4D 1 0 25 1 1 270 0 0 0 empty empty 1 12 6 -15 0 1 1 0;
#X obj 10 125 unpack f f;
#X obj 528 480 phase_modulation_oscillator;
#X obj 603 330 r \$0-osc1-carrier-note-offset, f 25;
#X obj 10 159 s \$0-midi-note;
#X obj 10 189 s \$0-midi-velocity;
#X obj 191 977 output~;
#X obj 71 374 mtof;
#X obj 71 338 r \$0-midi-note;
#X obj 121 374 r \$0-midi-velocity;
#X obj 474 330 r \$0-midi-note;
#X obj 528 376 + 0;
#X obj 528 412 mtof;
#X obj 578 376 r \$0-midi-velocity;
#X obj 71 531 s~ \$0-osc-0-output;
#X obj 528 531 s~ \$0-osc-1-output;
#X obj 171 149 scope~ 200 100 10 3 128 -2 2 0 0 0 0 77 77 77 228 228 228 183 183 183 0 empty;
#X obj 164 677 r~ \$0-osc-0-output;
#X obj 363 677 r~ \$0-osc-1-output;
#X obj 191 850 +~;
#X obj 171 114 r~ \$0-mixer-output;
#X obj 238 933 s~ \$0-mixer-output;
#X obj 164 792 *~;
#X obj 1161 24 vsl 17 128 0.01 1 0 0 empty empty Osc-0-level 0 -9 0 10 #e4e4e4 #4d4d4d #373737 0 1;
#X obj 1115 176 s \$0-osc-0-level;
#X obj 1220 24 vsl 17 128 0.01 1 0 0 empty empty Osc-1-level 0 -9 0 10 #e4e4e4 #4d4d4d #373737 0 1;
#X obj 1230 176 s \$0-osc-1-level;
#X obj 363 792 *~;
#X obj 206 746 sig~;
#X obj 206 712 r \$0-osc-0-level;
#X obj 397 746 sig~;
#X obj 397 712 r \$0-osc-1-level;
#X obj 191 892 /~ 2;
#X obj 172 406 r \$0-osc-0-mod-freq-ratio;
#X obj 223 438 r \$0-osc-0-mod-amplitude;
#X obj 536 93 vsl 19 82 0 5 0 1 \$0-osc-0-mod-freq-ratio empty empty 0 -9 0 10 #e4e4e4 #4d4d4d #373737 71 1;
#X obj 172 438 sig~;
#X obj 619 93 vsl 19 82 0 10 0 0 \$0-osc-0-mod-amplitude empty empty 0 -9 0 10 #e4e4e4 #4d4d4d #373737 0 1;
#X text 596 55 amplitude;
#X text 514 55 freq. ratio;
#X text 728 47 carrier note offset;
#X text 553 33 modulator;
#X text 963 55 amplitude;
#X text 881 55 freq. ratio;
#X text 920 33 modulator;
#X obj 903 82 vsl 19 82 0 5 0 1 \$0-osc-1-mod-freq-ratio empty empty 0 -9 0 10 #e4e4e4 #4d4d4d #373737 616 1;
#X obj 986 82 vsl 19 82 0 10 0 0 \$0-osc-1-mod-amplitude empty empty 0 -9 0 10 #e4e4e4 #4d4d4d #373737 0 1;
#X obj 629 438 sig~;
#X obj 629 406 r \$0-osc-1-mod-freq-ratio;
#X obj 680 438 r \$0-osc-1-mod-amplitude;
#X connect 5 0 21 0;
#X connect 6 0 8 0;
#X connect 8 0 11 0;
#X connect 8 1 12 0;
#X connect 9 0 22 0;
#X connect 10 0 18 1;
#X connect 14 0 5 0;
#X connect 15 0 14 0;
#X connect 16 0 5 1;
#X connect 17 0 18 0;
#X connect 18 0 19 0;
#X connect 19 0 9 0;
#X connect 20 0 9 1;
#X connect 24 0 29 0;
#X connect 25 0 34 0;
#X connect 26 0 39 0;
#X connect 27 0 23 0;
#X connect 29 0 26 0;
#X connect 30 0 31 0;
#X connect 32 0 33 0;
#X connect 34 0 26 1;
#X connect 35 0 29 1;
#X connect 36 0 35 0;
#X connect 37 0 34 1;
#X connect 38 0 37 0;
#X connect 39 0 28 0;
#X connect 39 0 13 0;
#X connect 40 0 43 0;
#X connect 41 0 5 3;
#X connect 43 0 5 2;
#X connect 54 0 9 2;
#X connect 55 0 54 0;
#X connect 56 0 9 3;
#X coords 0 0 1 1 698 264 0;
