#N canvas 827 239 734 565 12;
#X declare -path ./core;
#X obj 503 438 cnv 15 399 244 empty empty empty 20 12 0 14 #ac89bb #373737 0;
#X obj 89 438 cnv 15 387 244 empty empty empty 20 12 0 14 #82acbb #373737 0;
#X obj 547 32 cnv 15 293 203 empty empty Oscillator\ 1 20 12 0 14 #ac89bb #373737 0;
#X obj 341 32 cnv 15 195 203 empty empty Oscillator\ 0 20 12 0 14 #82acbb #373737 0;
#X obj 53 8 declare -path ./core;
#X obj 114 595 phase_modulation_oscillator;
#X obj 587 126 knob 50 -12 12 0 0 \$0-osc1-carrier-note-offset empty #E4E4E4 #B7B7B7 #4D4D4D 1 0 25 1 1 270 0 0 0 empty empty 1 12 6 -15 0 1 1 0;
#X obj 571 595 phase_modulation_oscillator;
#X obj 649 453 r \$0-osc1-carrier-note-offset, f 25;
#X obj -315 226 s \$0-midi-note;
#X obj 119 1479 output~;
#X obj 114 489 mtof;
#X obj 114 453 r \$0-midi-note;
#X obj 519 453 r \$0-midi-note;
#X obj 571 491 + 0;
#X obj 571 527 mtof;
#X obj 114 646 s~ \$0-osc-0-output;
#X obj 571 646 s~ \$0-osc-1-output;
#X obj 683 291 scope~ 200 100 10 3 128 -2 2 0 0 0 0 77 77 77 228 228 228 183 183 183 0 empty;
#X obj 92 723 r~ \$0-osc-0-output;
#X obj 291 723 r~ \$0-osc-1-output;
#X obj 119 896 +~;
#X obj 683 244 r~ \$0-mixer-output;
#X obj 165 1063 s~ \$0-mixer-output;
#X obj 92 838 *~;
#X obj 60 284 vsl 19 95 0.01 1 0 0 \$0-osc-0-level empty Osc-0-level -16 -9 0 10 #e4e4e4 #4d4d4d #373737 0 1;
#X obj 132 284 vsl 19 95 0.01 1 0 0 \$0-osc-1-level empty Osc-1-level -16 -9 0 10 #e4e4e4 #4d4d4d #373737 0 1;
#X obj 291 838 *~;
#X obj 134 792 sig~;
#X obj 134 758 r \$0-osc-0-level;
#X obj 325 792 sig~;
#X obj 325 758 r \$0-osc-1-level;
#X obj 215 521 r \$0-osc-0-mod-freq-ratio;
#X obj 266 553 r \$0-osc-0-mod-amplitude;
#X obj 388 109 vsl 19 82 0 5 0 1 \$0-osc-0-mod-freq-ratio empty empty 0 -9 0 10 #e4e4e4 #4d4d4d #373737 1650 1;
#X obj 215 553 sig~;
#X obj 471 109 vsl 19 82 0 10 0 0 \$0-osc-0-mod-amplitude empty empty 0 -9 0 10 #e4e4e4 #4d4d4d #373737 0 1;
#X text 448 82 amplitude;
#X text 366 82 freq. ratio;
#X text 555 74 carrier note offset;
#X text 405 60 modulator;
#X text 765 82 amplitude;
#X text 683 82 freq. ratio;
#X text 722 60 modulator;
#X obj 705 109 vsl 19 82 0 5 0 1 \$0-osc-1-mod-freq-ratio empty empty 0 -9 0 10 #e4e4e4 #4d4d4d #373737 1312 1;
#X obj 788 109 vsl 19 82 0 10 0 0 \$0-osc-1-mod-amplitude empty empty 0 -9 0 10 #e4e4e4 #4d4d4d #373737 0 1;
#X obj 672 553 sig~;
#X obj 672 521 r \$0-osc-1-mod-freq-ratio;
#X obj 723 553 r \$0-osc-1-mod-amplitude;
#X obj -315 21 ewi_emulator;
#X obj -179 226 s \$0-midi-breath;
#X obj 164 489 r \$0-midi-breath;
#X obj 621 491 r \$0-midi-breath;
#X obj 119 1036 *~;
#X obj 350 972 / 127;
#X msg 350 1006 \$1 10;
#X obj 350 1036 line~;
#X obj 350 938 r \$0-midi-breath;
#X obj 932 438 cnv 15 399 244 empty empty empty 20 12 0 14 #7499bb #373737 0;
#X obj 1000 595 phase_modulation_oscillator;
#X obj 948 453 r \$0-midi-note;
#X obj 1000 491 + 0;
#X obj 1000 527 mtof;
#X obj 1101 553 sig~;
#X obj 1050 491 r \$0-midi-breath;
#X obj 1078 453 r \$0-osc2-carrier-note-offset, f 25;
#X obj 1101 521 r \$0-osc-2-mod-freq-ratio;
#X obj 1152 553 r \$0-osc-2-mod-amplitude;
#X obj 1000 646 s~ \$0-osc-2-output;
#X obj 849 32 cnv 15 293 203 empty empty Oscillator\ 2 20 12 0 14 #7499bb #373737 0;
#X obj 889 126 knob 50 -12 12 0 0 \$0-osc2-carrier-note-offset empty #E4E4E4 #B7B7B7 #4D4D4D 1 0 25 1 1 270 0 0 0 empty empty 1 12 6 -15 0 1 1 0;
#X text 857 74 carrier note offset;
#X text 1067 82 amplitude;
#X text 985 82 freq. ratio;
#X text 1024 60 modulator;
#X obj 1007 109 vsl 19 82 0 5 0 1 \$0-osc-2-mod-freq-ratio empty empty 0 -9 0 10 #e4e4e4 #4d4d4d #373737 1511 1;
#X obj 1090 109 vsl 19 82 0 10 0 0 \$0-osc-2-mod-amplitude empty empty 0 -9 0 10 #e4e4e4 #4d4d4d #373737 0 1;
#X obj 456 838 *~;
#X obj 490 792 sig~;
#X obj 456 723 r~ \$0-osc-2-output;
#X obj 490 758 r \$0-osc-2-level;
#X obj 119 927 +~;
#X obj 200 284 vsl 19 95 0.01 1 0 0 \$0-osc-2-level empty Osc-2-level -16 -9 0 10 #e4e4e4 #4d4d4d #373737 0 1;
#X obj 1369 441 cnv 15 399 244 empty empty empty 20 12 0 14 #bb8e72 #373737 0;
#X obj 1437 598 phase_modulation_oscillator;
#X obj 1385 456 r \$0-midi-note;
#X obj 1437 494 + 0;
#X obj 1437 530 mtof;
#X obj 1538 556 sig~;
#X obj 1487 494 r \$0-midi-breath;
#X obj 1437 649 s~ \$0-osc-3-output;
#X obj 1589 556 r \$0-osc-3-mod-amplitude;
#X obj 1538 524 r \$0-osc-3-mod-freq-ratio;
#X obj 1515 456 r \$0-osc3-carrier-note-offset, f 25;
#X obj 265 284 vsl 19 95 0.01 1 0 0 \$0-osc-3-level empty Osc-3-level -16 -9 0 10 #e4e4e4 #4d4d4d #373737 0 1;
#X obj 1152 32 cnv 15 293 203 empty empty Oscillator\ 3 20 12 0 14 #bb8e72 #373737 0;
#X obj 1192 126 knob 50 -24 24 0 0 \$0-osc3-carrier-note-offset empty #E4E4E4 #B7B7B7 #4D4D4D 1 0 49 1 1 270 0 0 0 empty empty 1 12 6 -15 0 1 1 0;
#X text 1160 74 carrier note offset;
#X text 1370 82 amplitude;
#X text 1288 82 freq. ratio;
#X text 1327 60 modulator;
#X obj 1310 109 vsl 19 82 0 5 0 1 \$0-osc-3-mod-freq-ratio empty empty 0 -9 0 10 #e4e4e4 #4d4d4d #373737 735 1;
#X obj 1393 109 vsl 19 82 0 10 0 0 \$0-osc-3-mod-amplitude empty empty 0 -9 0 10 #e4e4e4 #4d4d4d #373737 0 1;
#X obj 608 838 *~;
#X obj 642 792 sig~;
#X obj 608 723 r~ \$0-osc-3-output;
#X obj 642 758 r \$0-osc-3-level;
#X obj 119 960 +~;
#X obj 119 992 /~ 4;
#X msg 184 1439 level \$1;
#X obj 184 1409 r \$0-main-volume;
#X obj 363 286 vsl 21 93 0.01 1 0 0 \$0-main-volume empty main-level -16 -9 0 10 #e4e4e4 #4d4d4d #373737 0 1;
#X floatatom 696 207 5 0 0 0 - \$0-osc-1-mod-freq-ratio - 12;
#X floatatom 779 207 5 0 0 0 - \$0-osc-1-mod-amplitude - 12;
#X floatatom 998 207 5 0 0 0 - \$0-osc-2-mod-freq-ratio - 12;
#X floatatom 1081 207 5 0 0 0 - \$0-osc-2-mod-amplitude - 12;
#X floatatom 1301 207 5 0 0 0 - \$0-osc-3-mod-freq-ratio - 12;
#X floatatom 1384 207 5 0 0 0 - \$0-osc-3-mod-amplitude - 12;
#X floatatom 379 207 5 0 0 0 - \$0-osc-0-mod-freq-ratio - 12;
#X floatatom 462 207 5 0 0 0 - \$0-osc-0-mod-amplitude - 12;
#X obj 284 636 scope~ 200 100 256 3 128 -1 1 0 0 0 0 77 77 77 228 228 228 183 183 183 0 empty;
#X floatatom 370 600 5 0 0 0 - - - 12;
#X obj 119 1283 lowpass~;
#X obj 150 1239 sig~;
#X obj 150 1127 r \$0-lp-central-freq;
#X obj 291 1239 sig~;
#X obj 291 1202 r \$0-lp-filter-res;
#X obj 448 284 vsl 19 95 0.1 50 0 0 \$0-lp-central-freq empty central\ freq. -16 -9 0 10 #e4e4e4 #4d4d4d #373737 0 1;
#X obj 509 284 vsl 19 95 0.1 10 0 0 \$0-lp-filter-res empty resonance -16 -9 0 10 #e4e4e4 #4d4d4d #373737 0 1;
#X obj 184 1330 s~ \$0-filter-output;
#X obj 937 291 scope~ 200 100 10 3 128 -1 1 0 0 0 0 77 77 77 228 228 228 183 183 183 0 empty;
#X obj 937 244 r~ \$0-filter-output;
#X floatatom 26 536 5 0 0 0 - - - 12;
#X obj 114 553 sig~;
#X obj 150 1196 *;
#X obj 196 1157 r \$0-carrier-freq;
#X obj -61 600 s \$0-carrier-freq;
#X floatatom 447 1264 8 0 0 0 - - - 24;
#X obj 40 207 s \$0-midi-note;
#X obj 174 207 s \$0-midi-breath;
#X obj 147 61 ctlin;
#X floatatom 137 98 5 0 0 0 - - - 12;
#X floatatom 196 98 5 0 0 0 - - - 12;
#X floatatom 251 98 5 0 0 0 - - - 12;
#X obj 53 61 notein 1;
#X obj 53 117 stripnote;
#X connect 5 0 16 0;
#X connect 5 1 120 0;
#X connect 5 2 121 0;
#X connect 7 0 17 0;
#X connect 8 0 14 1;
#X connect 11 0 132 0;
#X connect 11 0 133 0;
#X connect 12 0 11 0;
#X connect 13 0 14 0;
#X connect 14 0 15 0;
#X connect 15 0 7 0;
#X connect 19 0 24 0;
#X connect 20 0 27 0;
#X connect 21 0 81 0;
#X connect 22 0 18 0;
#X connect 24 0 21 0;
#X connect 27 0 21 1;
#X connect 28 0 24 1;
#X connect 29 0 28 0;
#X connect 30 0 27 1;
#X connect 31 0 30 0;
#X connect 32 0 35 0;
#X connect 33 0 5 3;
#X connect 35 0 5 2;
#X connect 46 0 7 2;
#X connect 47 0 46 0;
#X connect 48 0 7 3;
#X connect 51 0 5 1;
#X connect 52 0 7 1;
#X connect 53 0 23 0;
#X connect 53 0 122 0;
#X connect 54 0 55 0;
#X connect 55 0 56 0;
#X connect 56 0 53 1;
#X connect 57 0 54 0;
#X connect 59 0 68 0;
#X connect 60 0 61 0;
#X connect 61 0 62 0;
#X connect 62 0 59 0;
#X connect 63 0 59 2;
#X connect 64 0 59 1;
#X connect 65 0 61 1;
#X connect 66 0 63 0;
#X connect 67 0 59 3;
#X connect 77 0 81 1;
#X connect 78 0 77 1;
#X connect 79 0 77 0;
#X connect 80 0 78 0;
#X connect 81 0 107 0;
#X connect 84 0 90 0;
#X connect 85 0 86 0;
#X connect 86 0 87 0;
#X connect 87 0 84 0;
#X connect 88 0 84 2;
#X connect 89 0 84 1;
#X connect 91 0 84 3;
#X connect 92 0 88 0;
#X connect 93 0 86 1;
#X connect 103 0 107 1;
#X connect 104 0 103 1;
#X connect 105 0 103 0;
#X connect 106 0 104 0;
#X connect 107 0 108 0;
#X connect 108 0 53 0;
#X connect 109 0 10 0;
#X connect 110 0 109 0;
#X connect 122 0 10 0;
#X connect 122 0 129 0;
#X connect 123 0 122 1;
#X connect 124 0 134 0;
#X connect 125 0 122 2;
#X connect 126 0 125 0;
#X connect 131 0 130 0;
#X connect 132 0 136 0;
#X connect 133 0 5 0;
#X connect 134 0 123 0;
#X connect 134 0 137 0;
#X connect 135 0 134 1;
#X connect 140 0 141 0;
#X connect 140 1 142 0;
#X connect 140 2 143 0;
#X connect 141 0 139 0;
#X connect 144 0 145 0;
#X connect 144 1 145 1;
#X connect 145 0 138 0;
