#N canvas 827 239 734 565 12;
#X declare -path ./core;
#X obj 95 72 keyboard 16 80 4 1 0 0 empty empty;
#X listbox 95 170 4 0 0 0 - - - 16;
#X obj 95 212 unpack f f;
#X floatatom 95 302 3 0 0 0 - - - 16;
#X obj 95 257 mtof;
#X obj 95 602 output~;
#X obj 101 387 phase_modulation_oscillator;
#X obj 26 21 declare -path ./core;
#X floatatom 255 308 6 0 0 0 - - - 10;
#X floatatom 409 308 5 0 0 0 - - - 12;
#X obj 301 355 *~;
#X obj 123 457 xfade~;
#X obj 275 435 hsl 128 17 -1 1 0 0 empty empty empty -2 -8 0 10 #e4e4e4 #4d4d4d #373737 0 1;
#X obj 241 467 sig~;
#X floatatom 338 271 5 0 0 0 - - - 12;
#X obj 340 387 phase_modulation_oscillator;
#X obj 287 512 vsl 17 128 10 20000 1 0 empty empty empty 0 -9 0 10 #e4e4e4 #4d4d4d #373737 0 1;
#X obj 330 505 vsl 17 128 0.1 5 1 0 empty empty empty 0 -9 0 10 #e4e4e4 #4d4d4d #373737 0 1;
#X obj 284 665 sig~;
#X obj 330 665 sig~;
#X obj 23 690 scope~ 200 100 256 3 128 -1 1 0 0 0 0 77 77 77 228 228 228 183 183 183 0 empty;
#X obj 23 797 scope~ 200 100 256 3 128 -1 1 0 0 0 0 77 77 77 228 228 228 183 183 183 0 empty;
#X obj 116 548 lowpass~ 1000 0.7;
#X connect 0 0 1 0;
#X connect 1 0 2 0;
#X connect 2 0 4 0;
#X connect 2 1 6 1;
#X connect 2 1 15 1;
#X connect 3 0 6 0;
#X connect 3 0 10 0;
#X connect 4 0 3 0;
#X connect 6 0 11 0;
#X connect 8 0 6 2;
#X connect 8 0 15 2;
#X connect 9 0 10 1;
#X connect 10 0 15 0;
#X connect 11 0 20 0;
#X connect 11 0 22 0;
#X connect 12 0 13 0;
#X connect 13 0 11 2;
#X connect 14 0 6 3;
#X connect 14 0 15 3;
#X connect 15 0 11 1;
#X connect 16 0 18 0;
#X connect 17 0 19 0;
#X connect 18 0 22 1;
#X connect 19 0 22 2;
#X connect 22 0 5 0;
